PathFileType	4	(X/Y/Z)	Patient5_TMGait_0pt45_1_left_13.trc.trc
DataRate	CameraRate	NumFrames	NumMarkers	Units	OrigDataRate	OrigDataStartFrame	OrigNumFrames
57.142857142857	57.142857142857	7	32	mm	57.142857142857	18	       141
Frame#	Time	R.ASIS			L.ASIS			Chest			R.Shoulder			Neck			L.Shoulder			L.Elbow			L.Wrist			R.Elbow			R.Wrist			L.Thigh.Superior			L.Thigh.Lateral			L.Thigh.Inferior			L.Patella			L.Shank.Superior			L.Shank.Lateral			L.Shank.Inferior			L.Heel			L.Midfoot.Lateral			L.Midfoot.Superior			L.Toe			R.Thigh.Superior			R.Thigh.Lateral			R.Thigh.Inferior			R.Patella			R.Shank.Superior			R.Shank.Lateral			R.Shank.Inferior			R.Heel			R.Midfoot.Lateral			R.Midfoot.Superior			R.Toe			
		X1	Y1	Z1	X2	Y2	Z2	X3	Y3	Z3	X4	Y4	Z4	X5	Y5	Z5	X6	Y6	Z6	X7	Y7	Z7	X8	Y8	Z8	X9	Y9	Z9	X10	Y10	Z10	X11	Y11	Z11	X12	Y12	Z12	X13	Y13	Z13	X14	Y14	Z14	X15	Y15	Z15	X16	Y16	Z16	X17	Y17	Z17	X18	Y18	Z18	X19	Y19	Z19	X20	Y20	Z20	X21	Y21	Z21	X22	Y22	Z22	X23	Y23	Z23	X24	Y24	Z24	X25	Y25	Z25	X26	Y26	Z26	X27	Y27	Z27	X28	Y28	Z28	X29	Y29	Z29	X30	Y30	Z30	X31	Y31	Z31	X32	Y32	Z32	

18	20.477500000000	1014.162695216802	961.201135704883	596.767164284412	995.284831712161	949.530438088133	362.211584988383	1119.009135696858	1413.059742462641	490.415187266770	1035.016767051495	1480.785324697074	662.865146117522	997.961306370965	1544.702859420290	481.560453440429	1054.290908695324	1489.692827087624	297.472220740857	949.057256001842	1181.448196547038	166.758386111496	1033.190350384013	903.960791051136	192.187613951956	956.580988379823	1176.445089854536	830.016961600458	1160.645352593586	982.199455429417	759.791648302338	1074.342520286335	787.665506537386	337.647650745110	1043.917566278068	700.711882434290	285.317200522393	1138.055935232543	677.918314517392	347.008614935231	1194.666439481011	550.949630107718	334.400158527089	1145.215242191503	437.815818518105	352.424023299542	1068.434580902843	377.475081497969	279.920479952977	1105.752231410993	318.631892136330	360.918425880131	960.326634783520	94.570363539355	362.451640211773	1041.273281228286	70.591205194270	292.331337240580	1145.435922689858	125.655261139522	326.706053701032	1247.340863818989	80.616009864699	317.169867291919	989.724267596633	726.296801356921	615.680070287561	890.360719941124	662.544254567967	667.596028695051	958.918342111168	598.496458640291	591.276207163775	945.968415461322	505.909940533685	617.423690119214	898.505845459109	418.143548036575	578.718795682020	826.169372841092	352.681239539671	658.753834847307	879.424950214670	280.608293867997	576.310764672681	754.888002740142	53.765929392220	535.746292250838	829.861323680304	24.874559887905	612.425725262529	936.375796810105	87.160882683515	592.721041775594	1040.359668084014	45.151740977037	597.585792654520	
19	20.495000000000	1013.850334647277	960.158224615204	595.830598813561	997.125409186756	948.479737443710	360.449661158422	1121.279173539100	1411.471192551809	488.092958483305	1037.373989796584	1480.196288364850	659.974241369479	1000.341657123869	1543.316348757829	478.515354189298	1057.153044377222	1487.365536019465	294.674682316018	952.003736007494	1178.614291395705	164.938974320265	1037.037226934188	901.445937805015	190.358127809216	957.639959268873	1176.522725056240	827.777604332843	1161.042620554273	981.807086666207	757.064323176882	1072.666983010152	783.137000432302	335.873721397067	1041.001788043966	696.180544145490	284.337352405036	1134.786790047050	673.000514361492	346.485726467546	1191.827589689544	550.595392475641	334.917582170961	1150.928569241716	436.681306211282	353.390651051287	1079.004028305412	369.839407423834	281.636955180682	1123.233922984271	314.052679908463	362.071005320521	998.763552157425	78.027124027870	365.588552841175	1080.536731079665	60.069471313989	294.414237423427	1180.624547432121	123.278180414041	327.007878776535	1285.841498113979	86.337831216610	316.205870914675	987.406810257239	725.264794297758	614.600510557803	887.175713127581	662.390259094787	666.249696916527	955.438880880043	597.661310491184	590.458370866109	941.609392852584	505.060806440707	616.729825242986	893.473485540326	417.673984985494	577.943121221706	820.115403145050	353.045544748862	657.798203080924	873.191276079755	280.326629847290	575.894509391033	746.986106668260	53.775403443641	535.738817951551	821.885076939799	24.902026866768	612.454627740746	928.387325338748	87.070696562876	592.725648453993	1032.340003107417	45.125054725942	597.631750890081	
20	20.512500000000	1013.977204655960	959.114597829437	595.282242405195	1000.121420743764	947.094027014680	358.595749701890	1123.329580529860	1409.888977469163	485.582785636715	1039.130765276186	1479.398986711117	656.678507574368	1002.422124287350	1541.769179234251	475.054606370933	1060.083528949906	1485.009498723203	291.581250080748	955.365014882628	1175.641617053405	162.733778768179	1041.346925582919	898.812849771807	188.189534209817	958.887720171412	1176.091472784354	825.006342754368	1161.539290069803	980.681698489588	754.056163910037	1071.936326037749	777.547321237730	333.865687265758	1038.351066125568	690.534497305253	283.613844506881	1131.792183467912	666.743636580403	346.192122194567	1188.327489648943	548.700965902216	336.379399255791	1155.087379936007	434.614930784513	355.224323563590	1088.254223245502	362.280283811491	283.803239141626	1138.152728843911	309.690711459498	363.902870340025	1033.048432803044	64.993919081886	368.199077622684	1115.680390218961	51.683991631142	296.889786303708	1211.473180841862	121.679722370198	328.739019652157	1319.074821364108	91.798390504645	317.853292843962	985.819865127779	724.249304906461	613.322833443468	884.604471344275	662.218879522929	664.589187218356	952.712210380848	596.829791448176	589.528130174394	937.886362556002	504.126445391875	615.927998676351	889.032449888384	417.072901796754	577.025391549294	814.425806622758	353.426674776576	656.619358526962	867.303641024380	279.936718135387	575.375571613377	739.079671046370	53.729378941571	535.692719137000	813.917801399267	24.898888575887	612.458198440741	920.404115788782	87.007500368544	592.740253659369	1024.337279528949	45.081471360352	597.665728722032	
21	20.530000000000	1014.614334759723	958.126121979675	594.958926617374	1004.242529016999	945.465123050325	356.721257225251	1125.092596533381	1408.465872262597	482.865134839005	1040.118939006626	1478.525777854783	652.951601296099	1004.146669085332	1540.182174587294	471.133669848814	1063.024234782024	1482.767132975225	288.167155674012	959.291357254668	1172.667218750936	160.032488033112	1046.126719130004	896.173400812129	185.832400378511	960.255616555576	1175.262093839872	821.692232879639	1162.163705365045	979.023911964634	750.775079834523	1072.533775805959	771.395213410425	331.854079771848	1036.494931154275	684.260444268807	283.328252631298	1129.554085035029	659.690405802733	346.370430313509	1184.690507578536	545.523879473753	338.972899362807	1157.797007042991	431.631491762858	357.931858681767	1095.953496499230	355.060348832862	286.391117329022	1149.929845468507	305.419444481651	366.399099965175	1061.209037800969	55.459425638045	370.205159820681	1144.853972051865	45.178595728389	299.617760825092	1236.647687644171	120.239482797453	331.843088278955	1345.855189420281	95.869551585328	321.971819621687	985.054776764003	723.262515929957	611.785408677886	882.783494853775	662.043157848319	662.602767146333	950.843079050253	595.986820093301	588.447580713599	934.922452288042	503.107407034866	614.975359535264	885.267431835741	416.331034876004	575.940121033515	809.203044396654	353.839221456862	655.204602470291	861.813637317043	279.444450930114	574.731962966550	731.170503723818	53.631319610488	535.611250538305	805.969227107938	24.866109213893	612.429977236887	912.436338140363	86.976114272855	592.768728743952	1016.359933497351	45.019747128322	597.695902206032	
22	20.547500000000	1015.783048327324	957.263745612311	594.597840409625	1009.359755870696	943.741306884773	354.859074315242	1126.547197369926	1407.372261292611	479.924668268693	1040.235971714146	1477.739030915380	648.796257078366	1005.501362941448	1538.695700920311	466.730116808581	1065.912373463405	1480.789861361976	284.416458614176	963.892813901690	1169.839664847110	156.760271233501	1051.394178728307	893.664462357238	183.407133951526	961.587899067077	1174.196299644554	817.823840429646	1162.918233309589	977.164745685838	747.218670604764	1074.723305006542	765.286065243985	330.107807988414	1035.952500677537	677.976601151886	283.566151704799	1128.508313001260	652.503612834645	347.181141753645	1181.479742873584	541.473657523751	342.668208142638	1159.308636082768	427.902981101250	361.331976355465	1102.078818802970	348.469434818300	289.187995050147	1158.296609189079	301.171546472257	369.359278228072	1081.878431379895	49.198766638530	371.563186706275	1166.692001171994	40.168584142593	302.388402346250	1255.317359130698	118.288551226759	336.023544913003	1365.469873755492	97.418492033715	328.061015914914	985.141438907512	722.334046382845	609.979978441083	881.803666418993	661.886171386874	660.317963193487	949.905676298629	595.138457625534	587.203620759571	932.814342646650	502.025388517820	613.859028055283	882.238269606486	415.447422103195	574.689068448990	804.540798426707	354.308842544184	653.564259978806	856.765373598332	278.874351654081	573.959290037495	723.268380158434	53.523375197329	535.501578966783	798.052626494651	24.822613503933	612.363774962065	904.507991165051	86.979503079426	592.816911115486	1008.416714411239	44.935222111658	597.730294143948	
23	20.565000000000	1017.436466831623	956.609834420534	593.929006297884	1015.253694536200	942.114417610569	352.996016723753	1127.729101150396	1406.767667686030	476.754403097652	1039.485338520189	1477.214283790707	644.248172824352	1006.533045858662	1537.462651498060	461.852740671053	1068.713025884944	1479.219784256118	280.331206406860	969.208592951464	1167.311134312217	152.899992731207	1057.170359797651	891.444432676749	180.980542928457	962.658796759195	1173.088262058008	813.373455922091	1163.769654898733	975.508396817106	743.390700259064	1078.574985759100	759.872368978037	328.871525700305	1037.146160517510	672.370919772428	284.259446042033	1128.966851715401	645.900476816545	348.635781870124	1179.214203797581	537.080573686350	347.172923302719	1159.991302593265	423.772153965145	365.062202221731	1106.826372757365	342.818340135654	291.808962131254	1163.357298640524	297.008013870854	372.413298655106	1094.578530226428	45.783277785991	372.260552067828	1180.632331974055	36.256924179012	304.947590077601	1267.325513863010	115.358689672543	340.768440550747	1377.860419344769	95.724389624096	335.320952235522	986.047690471151	721.525307583703	607.956135837868	881.696911982952	661.789621241179	657.798567706397	949.938651254736	594.329369744447	585.814116391902	931.632103705843	500.935883500961	612.607133173479	879.989931925415	414.445182924132	573.312568602570	800.523168863052	354.877109377262	651.738877924789	852.201712680719	278.274906591533	573.077236989128	715.397006086334	53.507204500781	535.373143858330	790.184008521198	24.816244669619	612.255109466182	896.662201121575	87.018689385922	592.894129361541	1000.516331416340	44.817863584439	597.773044802199	
24	20.582500000000	1019.460244458108	956.256896504238	592.756312519985	1021.641702483103	940.793746658680	351.075036540299	1128.724602054834	1406.771682328551	473.360480672809	1037.996122740783	1477.120686871583	639.373879800609	1007.350771835154	1536.638724376558	456.546333767146	1071.444752534523	1478.171145612156	275.940330198246	975.196677440256	1165.227358608919	148.499864500544	1063.470602128275	889.681216141453	178.556396034754	963.207351513241	1172.142826298493	808.290047517357	1164.644699392583	974.460317963778	739.312693711958	1083.921313470776	755.748245595333	328.273855329896	1040.294895915011	668.086035062055	285.166601091999	1131.042078247592	640.536488373301	350.549886753182	1178.259899174734	532.910956887001	351.943072872815	1160.257643797086	419.689321120009	368.623503843721	1110.518544858036	338.382573316772	293.786659752771	1165.564702468102	293.119762072187	375.098804946328	1099.818093615575	44.594988680236	372.329730864418	1187.057718180746	33.132340698724	307.044218699796	1273.196216021863	111.381421500920	345.440154301005	1383.654536574119	90.831561808910	342.775547615871	987.684727484560	720.935991622163	605.801172677329	882.430770791374	661.822931672310	655.134549388575	950.937477400274	593.651526843845	584.328484317834	931.418494272691	499.936176678126	611.292079535557	878.559259873367	413.389089883743	571.893831507841	797.219077645447	355.605935407838	649.802836750590	848.167204522943	277.723905212177	572.133622580105	707.599921399561	53.758514887222	535.237210939281	782.381717948977	24.932795446704	612.103955019517	888.963552573263	87.093319203868	593.014435252158	992.667357127027	44.654179281337	597.823111427954	
